<?xml version="1.0" standalone="no"?>
<!DOCTYPE svg PUBLIC "-//W3C//DTD SVG 20010904//EN"
 "http://www.w3.org/TR/2001/REC-SVG-20010904/DTD/svg10.dtd">
<svg version="1.0" xmlns="http://www.w3.org/2000/svg"
 width="640.000000pt" height="730.000000pt" viewBox="0 0 640.000000 730.000000"
 preserveAspectRatio="xMidYMid meet">

<g transform="translate(0.000000,730.000000) scale(0.100000,-0.100000)"
fill="#000000" stroke="none">
<path d="M291 7263 c-6 -21 -73 -291 -151 -600 l-140 -563 0 -2675 0 -2675
670 0 670 0 0 -370 0 -370 373 0 372 0 370 370 370 370 595 0 595 0 1193 1193
1192 1192 0 2083 0 2082 -3050 0 -3049 0 -10 -37z m5517 -2193 l2 -1635 -522
-522 -523 -523 -813 0 -814 0 -451 -446 -452 -446 -3 446 -2 446 -670 0 -670
0 0 2160 0 2160 2458 -2 2457 -3 3 -1635z"/>
<path d="M2530 4620 l0 -890 295 0 295 0 0 890 0 890 -295 0 -295 0 0 -890z"/>
<path d="M4170 4620 l0 -890 295 0 295 0 0 890 0 890 -295 0 -295 0 0 -890z"/>
</g>
</svg>
