<?xml version="1.0" standalone="no"?>
<!DOCTYPE svg PUBLIC "-//W3C//DTD SVG 20010904//EN"
 "http://www.w3.org/TR/2001/REC-SVG-20010904/DTD/svg10.dtd">
<svg version="1.0" xmlns="http://www.w3.org/2000/svg"
 width="300.000000pt" height="300.000000pt" viewBox="0 0 300.000000 300.000000"
 preserveAspectRatio="xMidYMid meet">

<g transform="translate(0.000000,300.000000) scale(0.100000,-0.100000)"
fill="#000000" stroke="none">
<path d="M1530 2618 c-42 -73 -53 -122 -47 -199 l6 -66 -72 -6 c-40 -3 -150
-12 -245 -18 l-173 -13 -53 53 c-68 67 -86 64 -86 -12 l0 -53 -238 -15 c-131
-9 -243 -19 -250 -23 -18 -11 -17 -1815 1 -1838 11 -15 31 -15 217 -2 187 12
489 22 1309 40 258 6 295 8 310 23 16 16 19 70 31 501 l13 484 138 170 c76 94
190 234 253 311 170 207 213 289 186 354 -18 43 -38 46 -84 11 -127 -95 -221
-129 -383 -137 l-113 -6 0 72 c0 120 23 111 -295 111 l-274 0 -15 54 c-9 30
-23 90 -32 133 -19 101 -29 123 -54 123 -13 0 -29 -17 -50 -52z m50 -115 c7
-32 25 -96 42 -143 68 -199 88 -291 113 -520 14 -123 41 -344 60 -490 43 -325
55 -478 55 -675 l0 -152 -441 -8 c-242 -4 -442 -5 -445 -2 -3 3 2 32 10 65 22
84 20 152 -8 257 -36 133 -39 170 -22 264 8 45 17 85 19 87 2 2 29 11 61 19
106 28 276 130 276 166 0 37 -29 31 -117 -24 -137 -87 -220 -106 -420 -99
l-62 2 2 42 c2 37 -2 44 -30 62 -18 12 -32 24 -33 27 0 4 38 49 85 101 l86 94
67 -9 c138 -19 192 21 192 143 0 79 -23 128 -68 150 l-32 15 0 93 c0 59 -7
122 -19 170 -11 43 -23 100 -26 127 l-7 50 33 -31 c19 -17 51 -44 72 -59 39
-29 77 -89 77 -123 0 -38 22 -43 86 -21 52 19 66 20 120 10 89 -16 209 -14
227 3 8 8 19 49 26 90 9 60 8 91 -4 158 -8 46 -15 99 -15 119 0 32 17 99 25
99 2 0 9 -26 15 -57z m600 -263 l0 -60 -152 0 c-158 -1 -210 -10 -248 -45 -16
-14 -20 -15 -24 -4 -15 44 -46 152 -46 160 0 5 103 9 235 9 l235 0 0 -60z
m-677 -5 c-5 -103 0 -99 -111 -90 -137 10 -162 10 -202 1 -34 -7 -36 -6 -48
26 -6 18 -23 45 -37 61 -16 16 -21 27 -13 28 7 0 78 7 158 14 80 7 170 12 200
11 l55 -1 -2 -50z m-615 -89 c21 -91 29 -235 16 -270 -3 -9 -14 -16 -23 -16
-28 0 -79 -38 -97 -71 -13 -26 -15 -48 -10 -99 5 -60 4 -69 -16 -86 -44 -39
-190 -209 -225 -261 -30 -45 -35 -60 -30 -90 4 -19 9 -38 12 -41 8 -8 356 -33
374 -27 9 4 12 -1 8 -17 -17 -66 -27 -167 -22 -203 4 -22 18 -85 32 -140 28
-109 28 -178 -1 -271 l-16 -51 -107 -6 c-60 -4 -165 -10 -235 -13 l-128 -7 0
870 0 871 148 9 c81 5 181 11 223 11 l76 2 21 -94z m999 -160 c101 -39 187
-82 204 -103 9 -11 4 -25 -26 -68 -65 -95 -46 -155 80 -250 37 -28 61 -53 57
-59 -4 -6 -44 -67 -90 -135 -89 -134 -149 -248 -185 -357 l-23 -68 -13 120
c-7 65 -26 214 -41 329 -40 288 -72 594 -66 611 7 18 0 19 103 -20z m293
-1023 c-6 -224 -13 -414 -15 -420 -3 -10 -37 -13 -126 -13 l-122 0 6 128 c10
189 47 332 127 492 37 75 133 231 138 225 2 -2 -2 -187 -8 -412z"/>
<path d="M1346 1985 c-20 -20 -32 -83 -18 -97 18 -18 47 -4 50 25 2 15 9 27
15 27 17 0 77 -37 109 -67 29 -28 61 -27 66 1 5 22 -44 66 -110 101 -54 29
-90 32 -112 10z"/>
<path d="M1249 1811 c-79 -50 -117 -119 -105 -192 12 -73 23 -86 91 -104 125
-34 229 -6 261 71 15 35 18 129 8 184 -9 43 -65 69 -150 70 -49 0 -68 -5 -105
-29z"/>
<path d="M830 1950 c-8 -5 -29 -10 -47 -10 -31 0 -63 -21 -63 -41 0 -21 41
-89 54 -89 21 0 36 24 29 48 -4 17 -1 22 15 22 30 0 77 43 69 63 -7 19 -34 22
-57 7z"/>
</g>
</svg>
