<?xml version="1.0" standalone="no"?>
<!DOCTYPE svg PUBLIC "-//W3C//DTD SVG 20010904//EN"
 "http://www.w3.org/TR/2001/REC-SVG-20010904/DTD/svg10.dtd">
<svg version="1.0" xmlns="http://www.w3.org/2000/svg"
 width="550.000000pt" height="550.000000pt" viewBox="0 0 550.000000 550.000000"
 preserveAspectRatio="xMidYMid meet">

<g transform="translate(0.000000,550.000000) scale(0.100000,-0.100000)"
fill="#000000" stroke="none">
<path d="M0 2750 l0 -2750 2750 0 2750 0 0 2750 0 2750 -2750 0 -2750 0 0
-2750z m4654 2492 c36 -54 79 -132 96 -173 136 -328 155 -878 43 -1249 -49
-165 -114 -271 -235 -386 -91 -86 -180 -145 -364 -241 -133 -69 -145 -77 -142
-101 6 -49 29 -50 124 -4 49 23 91 38 96 34 4 -4 18 -55 32 -114 71 -300 164
-441 420 -632 195 -147 240 -200 253 -296 7 -52 -28 -150 -80 -227 -167 -245
-625 -627 -1512 -1263 -242 -173 -305 -214 -305 -197 0 3 37 56 81 119 257
356 385 577 396 679 7 68 -9 102 -71 153 -52 42 -76 103 -76 193 l0 53 -45 0
-45 0 6 -72 c11 -137 38 -200 100 -239 20 -12 39 -31 43 -43 11 -28 -12 -106
-56 -186 -93 -170 -573 -852 -605 -858 -16 -3 -115 119 -368 458 -208 278
-340 491 -340 550 0 6 16 27 35 49 53 59 65 97 65 211 l0 100 -43 0 -43 0 4
-65 c6 -90 -4 -130 -42 -173 -47 -52 -56 -74 -56 -129 0 -97 96 -256 392 -651
88 -116 158 -217 156 -222 -5 -16 -755 440 -1148 698 -514 337 -811 586 -889
744 -44 89 -48 129 -20 203 19 53 40 77 164 200 185 185 239 275 279 468 16
78 38 370 29 392 -2 7 -41 37 -86 66 -111 73 -234 196 -283 284 -69 126 -115
279 -151 505 -14 89 -18 174 -18 375 0 286 8 350 67 535 29 91 122 295 139
306 19 11 531 -156 686 -225 245 -108 428 -245 553 -412 111 -150 198 -355
286 -672 43 -157 48 -167 78 -167 40 0 52 24 38 77 -7 25 -10 48 -7 51 3 3 54
-18 113 -46 225 -108 282 -109 647 -7 113 31 208 32 368 4 127 -23 147 -19
147 26 0 31 -16 41 -75 50 -91 13 -89 9 -81 154 27 492 120 743 365 991 194
196 377 305 651 385 168 50 157 53 234 -63z"/>
<path d="M3705 2340 c-237 -11 -325 -38 -325 -100 0 -47 23 -82 95 -145 86
-76 81 -82 -81 -87 -125 -3 -144 -9 -144 -43 0 -35 18 -40 137 -37 190 4 265
37 247 108 -4 16 -40 60 -87 105 -44 42 -77 81 -74 86 11 18 74 25 270 32 190
6 207 10 207 46 0 41 -33 46 -245 35z"/>
<path d="M1722 2301 c-138 -29 -169 -44 -158 -79 9 -27 30 -31 90 -15 103 26
238 45 249 34 7 -7 1 -32 -20 -78 -17 -37 -33 -80 -37 -95 -9 -39 16 -94 52
-112 73 -38 361 -50 382 -16 12 19 12 31 0 50 -7 11 -25 14 -72 12 -113 -5
-246 8 -269 27 l-21 17 32 74 c59 135 59 169 -5 195 -46 20 -67 19 -223 -14z"/>
<path d="M2549 995 c-79 -16 -144 -47 -160 -77 -48 -89 26 -194 275 -393 130
-105 139 -105 262 -10 143 111 238 211 258 272 15 45 15 55 3 85 -19 46 -57
74 -132 97 -132 41 -369 53 -506 26z"/>
</g>
</svg>
